<?xml version="1.0" standalone="no"?>
<!DOCTYPE svg PUBLIC "-//W3C//DTD SVG 20010904//EN"
 "http://www.w3.org/TR/2001/REC-SVG-20010904/DTD/svg10.dtd">
<svg version="1.0" xmlns="http://www.w3.org/2000/svg"
 width="1498.000000pt" height="1050.000000pt" viewBox="0 0 1498.000000 1050.000000"
 preserveAspectRatio="xMidYMid meet">
<metadata>
Created by potrace 1.16, written by Peter Selinger 2001-2019
</metadata>
<g transform="translate(0.000000,1050.000000) scale(0.100000,-0.100000)"
fill="#000000" stroke="none">
<path d="M2138 10158 c-87 -23 -146 -135 -132 -252 l6 -53 -42 -6 c-118 -16
-186 -130 -159 -267 l11 -59 -35 -33 c-42 -40 -57 -88 -57 -190 0 -162 56
-397 169 -710 160 -443 251 -629 388 -794 l51 -61 -34 -54 c-127 -200 -124
-539 6 -801 36 -72 38 -82 39 -170 1 -228 84 -446 232 -611 50 -57 162 -147
246 -200 63 -40 126 -105 157 -162 116 -217 350 -371 657 -434 52 -11 119 -29
147 -40 29 -12 61 -21 72 -21 10 0 55 -25 100 -55 69 -45 141 -79 252 -118 15
-5 16 -17 11 -90 -6 -92 6 -187 38 -285 12 -36 18 -73 15 -87 -4 -14 -35 -57
-71 -97 -77 -85 -147 -215 -176 -325 -38 -144 -26 -346 28 -478 l26 -63 -30
-43 c-46 -66 -88 -156 -114 -239 -20 -63 -23 -96 -23 -205 1 -132 10 -180 59
-305 l18 -46 -47 -94 c-59 -122 -80 -216 -72 -333 9 -138 68 -288 143 -369 24
-26 25 -29 13 -75 -6 -26 -14 -91 -17 -142 -6 -88 -9 -98 -40 -140 -19 -24
-43 -61 -53 -81 -13 -25 -29 -40 -47 -45 -61 -15 -271 -209 -342 -316 -59 -88
-82 -159 -88 -269 -6 -104 11 -199 47 -270 25 -50 25 -50 -7 -51 -47 -1 -138
-33 -138 -49 0 -33 130 -68 355 -95 69 -9 148 -20 175 -25 69 -13 465 -27
1145 -41 622 -13 1656 -7 2340 13 573 16 846 14 1190 -11 724 -52 1616 -76
2210 -61 795 21 1325 61 1369 105 13 12 11 15 -10 23 -37 14 -236 40 -421 53
-93 7 -168 16 -168 19 0 3 14 11 30 17 54 20 282 161 382 236 567 424 928
1034 1034 1749 22 149 29 449 15 604 -81 867 -561 1615 -1303 2029 -92 51
-309 155 -325 155 -22 1 -70 79 -81 133 -59 296 -331 519 -711 582 -101 17
-241 17 -408 -1 l-52 -6 -47 74 c-68 105 -144 176 -250 231 -76 39 -96 54
-126 99 -20 29 -48 89 -62 133 -71 223 -253 435 -460 535 -124 60 -306 100
-458 100 -41 0 -56 7 -112 49 -125 93 -308 172 -467 201 -35 7 -70 14 -77 16
-8 2 10 30 47 74 172 205 226 506 137 762 -39 112 -100 204 -197 300 l-89 86
0 69 c0 37 -7 111 -15 163 -61 395 -294 692 -632 806 -90 29 -96 33 -112 70
-32 71 -120 135 -230 168 -62 18 -212 21 -281 5 -125 -29 -247 -120 -291 -218
-22 -48 -30 -56 -94 -88 -163 -83 -287 -193 -388 -344 -112 -169 -166 -334
-183 -562 -7 -96 -7 -97 -39 -117 -49 -30 -156 -148 -199 -218 -53 -87 -82
-164 -102 -268 -39 -211 13 -437 141 -605 25 -32 40 -59 35 -59 -28 0 -211
-22 -260 -31 -30 -6 -134 -35 -231 -65 l-176 -54 -88 9 c-100 10 -246 0 -352
-24 l-71 -16 -69 36 c-37 19 -104 65 -148 101 -44 36 -96 78 -116 94 -26 21
-39 40 -44 67 -10 57 -59 165 -103 230 -83 120 -203 208 -345 251 -68 21 -86
30 -81 42 6 15 40 167 89 390 14 69 31 179 35 245 5 66 20 172 34 235 13 63
34 159 45 214 37 172 24 234 -59 276 -63 32 -116 35 -181 11 -116 -44 -177
-127 -250 -340 -25 -74 -50 -136 -56 -138 -13 -5 -216 413 -388 798 -56 126
-105 195 -160 223 -49 26 -116 26 -168 1 l-38 -18 -17 24 c-58 84 -129 112
-224 87z m101 -102 c42 -22 56 -50 125 -254 36 -103 85 -241 109 -307 170
-452 177 -465 227 -415 19 19 19 20 -7 77 -75 170 -273 729 -273 774 0 49 60
78 116 54 37 -15 49 -39 213 -400 139 -307 167 -369 256 -548 71 -144 77 -159
63 -175 -36 -41 -71 -132 -50 -132 4 0 40 31 79 69 59 56 79 82 104 142 17 40
38 83 45 95 8 12 24 55 35 95 56 205 158 322 262 302 54 -11 60 -37 33 -144
-45 -175 -96 -445 -96 -502 0 -52 -19 -144 -105 -522 -16 -68 -43 -146 -71
-205 -52 -109 -53 -134 -8 -138 29 -3 33 -9 73 -105 45 -111 50 -154 26 -233
-30 -100 31 -71 86 42 47 94 42 196 -15 328 l-17 38 38 -7 c162 -29 325 -197
368 -376 19 -84 20 -267 0 -343 -55 -209 -188 -390 -378 -510 -71 -45 -212
-101 -309 -122 -101 -22 -285 -22 -367 0 -167 45 -278 142 -367 321 -24 50
-53 126 -64 169 -25 98 -26 243 -4 329 17 66 49 137 63 137 16 0 41 -38 60
-91 29 -85 76 -171 113 -206 60 -57 168 -93 243 -79 49 10 48 40 -2 57 -71 23
-146 84 -170 139 -31 72 -81 225 -77 232 3 5 13 8 23 8 33 0 72 40 69 69 -3
25 -6 26 -78 31 -86 6 -120 23 -191 97 -156 164 -257 357 -422 814 -110 302
-121 340 -147 495 -26 154 -23 234 11 270 33 35 70 31 107 -10 30 -34 37 -56
67 -215 21 -107 35 -149 102 -296 62 -136 72 -150 102 -140 40 12 36 46 -17
151 -74 145 -91 194 -118 343 -14 74 -32 148 -41 165 -24 49 -74 95 -109 102
-34 6 -34 6 -49 96 -15 96 69 162 137 108 37 -28 52 -66 102 -259 54 -204 62
-223 162 -392 88 -148 94 -155 123 -139 37 19 25 57 -68 204 -96 153 -82 115
-162 456 -11 47 -33 112 -48 145 -33 68 -56 190 -47 240 7 38 56 85 87 85 11
0 33 -7 48 -14z m4729 -216 c49 -22 96 -61 114 -94 8 -15 6 -23 -13 -37 -31
-24 -20 -32 76 -55 297 -72 512 -267 605 -549 42 -127 62 -252 58 -367 l-3
-97 65 -54 c97 -79 156 -152 200 -242 50 -104 64 -169 64 -285 -2 -333 -226
-582 -666 -739 -55 -20 -100 -40 -101 -46 -1 -15 48 -23 160 -24 123 -1 228
18 325 58 86 37 134 39 263 12 390 -81 637 -340 637 -671 0 -182 -48 -286
-171 -369 -112 -76 -220 -120 -436 -176 -682 -180 -1735 -153 -2385 60 l-75
25 -1 132 c-3 326 -114 602 -320 797 -40 39 -110 92 -155 118 -93 54 -97 48
61 90 75 20 129 26 255 30 l160 5 90 -40 c99 -43 274 -102 305 -102 21 0 27
15 10 25 -26 16 0 20 126 16 86 -2 140 1 146 7 8 8 2 13 -18 17 -96 21 -285
80 -363 114 -250 108 -413 289 -456 503 -19 98 -19 159 1 256 39 193 162 353
342 446 51 26 91 53 89 59 -2 6 -23 15 -48 21 l-44 11 2 79 c3 92 31 215 72
321 95 245 298 435 569 531 57 21 101 42 99 48 -2 6 -25 15 -50 20 -26 5 -47
14 -47 19 0 44 123 126 220 147 66 13 184 4 238 -20z m-2837 -2527 c100 -110
151 -264 151 -458 1 -199 -47 -363 -154 -527 -152 -232 -402 -384 -694 -420
-315 -38 -676 133 -833 396 -40 68 -101 238 -101 284 l0 33 43 -29 c202 -139
478 -168 757 -80 221 71 406 199 537 372 93 125 163 302 178 453 l7 73 28 -20
c15 -11 52 -46 81 -77z m759 -98 c186 -44 327 -131 439 -271 244 -303 278
-811 81 -1204 -75 -150 -228 -324 -365 -415 -74 -49 -204 -109 -285 -132 -52
-14 -100 -18 -245 -18 -176 1 -182 1 -280 34 -95 31 -192 78 -182 87 2 3 38
14 78 25 41 12 115 40 165 64 356 167 591 502 636 906 40 358 -109 731 -355
890 l-58 38 38 6 c21 4 45 8 53 10 31 8 217 -6 280 -20z m-329 -194 c279 -280
305 -807 58 -1172 -140 -208 -367 -357 -617 -405 -214 -41 -484 11 -676 130
-98 61 -255 227 -191 202 8 -3 65 -11 125 -17 408 -45 832 185 1039 562 129
236 164 528 96 792 l-8 29 54 -28 c30 -15 83 -57 120 -93z m4365 30 c208 -43
381 -169 493 -358 43 -73 85 -189 95 -265 l7 -46 -63 -37 c-127 -74 -256 -181
-338 -280 l-55 -66 -32 70 c-39 87 -82 152 -141 213 -34 36 -43 52 -39 70 3
13 15 61 27 108 19 73 22 102 18 215 -6 143 -30 238 -89 343 l-29 52 27 0 c16
0 69 -9 119 -19z m807 -815 c40 -18 92 -51 116 -72 46 -40 101 -110 101 -128
0 -6 -30 -17 -66 -24 -213 -40 -435 -189 -549 -366 -77 -121 -125 -272 -125
-401 l-1 -70 -86 -48 c-48 -26 -92 -46 -98 -43 -6 2 -23 28 -38 59 l-28 55 30
53 c66 118 111 302 111 453 0 88 2 94 38 155 74 128 252 289 415 377 34 19 72
34 85 34 13 0 56 -15 95 -34z m-922 -92 c16 -15 47 -63 69 -106 147 -282 62
-710 -181 -906 -195 -158 -569 -282 -1039 -343 -287 -37 -765 -41 -1080 -9
-477 49 -972 175 -1314 334 -54 25 -104 46 -110 46 -7 0 -30 -18 -51 -40 -36
-37 -65 -51 -65 -32 0 15 56 70 145 145 239 198 384 415 452 680 25 97 30 108
48 104 11 -3 90 -23 175 -45 626 -165 1345 -196 2028 -86 339 54 583 134 757
249 81 53 118 55 166 9z m1786 -228 c214 -46 389 -142 478 -264 69 -94 114
-273 100 -396 -16 -135 -75 -261 -134 -286 -17 -7 -33 -11 -35 -9 -3 2 7 45
20 94 47 173 41 336 -17 489 -24 62 -69 115 -69 80 0 -10 9 -53 20 -94 27 -98
37 -278 21 -361 -40 -203 -141 -353 -206 -305 -19 14 -19 15 2 83 37 117 47
184 47 308 0 140 -26 251 -77 336 -35 58 -65 79 -53 38 67 -230 77 -408 33
-580 -53 -203 -127 -281 -204 -215 -27 24 -28 25 -14 72 66 236 56 451 -28
629 -32 68 -66 113 -77 103 -4 -4 5 -49 19 -100 49 -174 62 -278 49 -408 -22
-222 -81 -322 -168 -285 -46 19 -55 54 -64 235 -7 137 -12 176 -32 231 -32 86
-67 145 -122 205 -38 41 -47 47 -56 34 -6 -8 -9 -36 -7 -61 l4 -46 -116 -23
c-143 -28 -347 -87 -464 -134 -48 -20 -91 -36 -94 -36 -12 0 8 115 33 189 57
172 193 314 377 395 31 14 57 24 57 21 0 -3 -15 -26 -34 -52 -49 -70 -74 -124
-92 -200 -15 -64 -12 -133 5 -133 4 0 22 33 39 73 77 174 230 312 402 361 132
38 312 43 457 12z m-501 -631 c12 -33 24 -81 28 -106 l7 -46 -73 -13 c-338
-60 -699 -229 -992 -464 -115 -93 -290 -274 -383 -396 -343 -454 -521 -1047
-474 -1580 55 -622 363 -1208 836 -1591 172 -139 454 -297 660 -369 477 -167
1042 -161 1496 15 560 218 985 605 1247 1137 206 417 286 863 237 1308 -77
685 -461 1291 -1060 1670 -100 64 -296 162 -348 175 -31 8 -32 15 -13 80 8 26
18 72 22 101 3 30 10 54 15 54 39 0 296 -124 431 -207 308 -190 613 -495 808
-808 165 -264 304 -657 352 -990 20 -142 17 -554 -5 -695 -104 -659 -427
-1229 -920 -1625 -318 -255 -716 -441 -1042 -486 -44 -6 -231 -13 -415 -16
-420 -6 -615 9 -803 63 -473 136 -914 432 -1222 819 -239 300 -427 703 -499
1065 -78 397 -59 801 56 1175 147 480 398 879 763 1213 248 226 568 406 900
507 144 43 289 75 335 72 33 -2 36 -5 56 -62z m34 -244 l0 -50 -57 -11 c-319
-63 -629 -205 -883 -403 -88 -69 -269 -246 -339 -332 -156 -192 -283 -418
-375 -668 -233 -629 -144 -1343 239 -1917 158 -236 341 -421 568 -573 782
-525 1797 -461 2513 157 227 196 376 389 519 671 164 323 245 659 245 1015 0
238 -32 438 -106 660 -149 446 -433 823 -815 1083 -143 96 -240 147 -442 231
l-38 16 25 27 c14 15 26 30 26 33 0 3 4 11 8 18 10 16 110 -24 262 -104 451
-238 819 -644 1013 -1114 119 -288 169 -542 169 -855 1 -508 -161 -991 -476
-1415 -90 -121 -303 -334 -428 -428 -420 -314 -886 -465 -1388 -449 -464 15
-872 158 -1250 440 -453 337 -789 920 -865 1500 -17 136 -20 403 -5 527 42
335 180 715 364 1000 320 493 832 853 1386 974 36 8 80 14 98 15 32 1 32 1 32
-48z m-5090 19 c144 -83 436 -201 650 -263 264 -77 484 -120 790 -158 213 -26
785 -37 1007 -20 436 35 827 126 1078 250 55 27 102 48 104 46 2 -2 -3 -35
-10 -72 -13 -66 -16 -71 -105 -164 -116 -123 -195 -223 -277 -346 -70 -105
-187 -313 -187 -332 0 -6 -39 -31 -87 -55 -570 -285 -1468 -321 -2263 -91
-594 171 -1124 490 -1292 774 -49 84 -81 206 -76 287 6 99 9 101 196 107 130
4 171 9 237 30 102 32 188 34 235 7z m5135 -253 c47 -72 137 -102 213 -71 34
13 46 14 55 5 9 -9 11 -194 9 -764 -2 -414 -5 -753 -6 -754 -1 -2 -25 -7 -52
-12 -27 -5 -56 -12 -64 -15 -9 -4 -35 13 -65 42 l-51 47 -53 190 c-29 105 -82
289 -118 410 -36 121 -74 252 -85 290 -11 39 -42 144 -70 235 -50 164 -80 275
-92 337 l-5 33 82 25 c45 14 123 34 172 44 80 17 91 17 100 4 6 -9 19 -29 30
-46z m900 3 l94 -31 -5 -32 c-4 -18 -48 -162 -99 -322 -52 -159 -153 -474
-225 -700 l-132 -410 -61 -57 c-57 -52 -65 -57 -97 -51 -19 3 -39 10 -45 15
-10 9 -16 1237 -7 1403 l4 80 60 -3 c52 -3 66 0 108 26 44 27 53 30 85 21 20
-6 51 -7 68 -4 39 8 105 46 131 74 11 12 21 21 22 21 2 0 46 -14 99 -30z
m-1322 -97 c19 -46 26 -67 127 -413 161 -546 271 -933 266 -937 -9 -10 -953
976 -979 1022 -9 17 97 105 233 194 83 55 304 170 326 171 6 0 18 -17 27 -37z
m1584 -9 c148 -73 453 -286 453 -317 0 -8 -724 -728 -942 -936 l-78 -74 25 74
c13 41 108 335 210 654 102 319 190 587 195 595 6 8 13 23 16 33 4 9 11 17 16
17 6 0 53 -21 105 -46z m-6866 -342 c432 -397 1056 -669 1784 -776 270 -40
715 -45 984 -11 218 28 521 101 658 159 33 14 62 21 67 16 5 -5 -6 -60 -28
-132 -39 -133 -86 -330 -86 -365 0 -48 -211 -167 -385 -218 -142 -41 -247 -56
-431 -62 -251 -8 -474 19 -669 84 -88 29 -197 80 -234 111 -23 18 -24 22 -13
59 17 57 15 147 -4 191 l-16 37 -18 -55 c-53 -173 -181 -284 -375 -325 -112
-24 -357 -24 -490 -1 -250 45 -541 167 -720 303 -179 137 -299 316 -331 493
-33 183 22 392 133 511 64 68 82 66 174 -19z m4719 -69 c32 -32 174 -182 316
-333 142 -151 352 -370 467 -486 197 -200 209 -214 226 -270 l18 -60 -47 -51
-46 -52 -314 188 c-173 103 -396 237 -495 298 -510 311 -565 347 -565 363 0
15 123 195 184 270 78 96 170 190 186 190 7 0 38 -26 70 -57z m2859 -192 c37
-53 87 -129 111 -169 41 -70 42 -73 24 -87 -21 -17 -167 -102 -419 -245 -93
-54 -352 -201 -574 -329 -223 -127 -408 -230 -412 -229 -4 2 -25 25 -47 52
l-39 50 23 70 24 71 496 490 c273 270 520 509 548 533 l51 43 73 -77 c40 -42
103 -120 141 -173z m-3274 -290 c17 -10 80 -49 140 -86 61 -37 160 -98 220
-135 61 -37 178 -109 260 -159 83 -51 260 -158 395 -238 330 -196 323 -191
315 -211 -3 -9 -9 -35 -12 -59 -3 -24 -8 -43 -12 -43 -13 0 -195 32 -336 60
-167 32 -556 107 -885 170 -316 60 -323 61 -342 71 -25 13 -23 40 12 173 53
206 166 476 198 476 10 0 31 -8 47 -19z m3478 -58 c54 -107 123 -328 152 -482
21 -118 22 -117 -27 -130 -38 -9 -1391 -206 -1509 -218 -50 -6 -53 -4 -63 43
-7 29 -4 33 36 56 24 14 135 78 248 143 113 65 324 186 470 270 146 84 340
195 432 249 167 96 202 114 225 115 7 1 23 -20 36 -46z m-7829 -500 c216 -159
498 -274 781 -318 133 -21 423 -16 520 8 33 9 62 13 64 11 3 -3 0 -38 -6 -79
-32 -226 -210 -389 -481 -441 -97 -18 -334 -18 -440 1 -395 69 -682 268 -778
537 -53 149 -28 361 57 477 l30 42 92 -94 c51 -51 123 -116 161 -144z m4300
-159 c105 -19 362 -68 571 -108 209 -41 451 -87 538 -102 86 -16 157 -31 157
-34 0 -5 -213 -57 -635 -155 -132 -31 -355 -83 -495 -116 -140 -34 -280 -63
-311 -66 l-56 -6 -7 42 c-19 124 -27 308 -17 433 6 73 11 136 11 140 0 14 50
9 244 -28z m3675 0 l31 -6 0 -169 c0 -150 -14 -306 -38 -419 -7 -30 -12 -35
-38 -38 -16 -2 -142 24 -279 56 -138 33 -398 94 -580 137 -678 159 -670 156
-673 187 -2 18 2 28 15 32 10 3 128 21 263 40 393 55 1230 178 1261 185 4 0
21 -2 38 -5z m-1820 -39 c34 -17 74 -61 96 -104 26 -53 18 -156 -18 -210 -115
-173 -386 -96 -387 110 0 109 56 186 160 220 32 11 116 2 149 -16z m-4564 -52
c4 -10 6 -62 5 -115 -1 -107 16 -192 56 -269 30 -59 30 -60 0 -123 -88 -187
-52 -433 86 -581 l38 -42 0 -100 c0 -98 -1 -100 -33 -139 -111 -132 -173 -321
-166 -503 1 -36 -4 -92 -11 -124 -10 -45 -11 -71 -3 -110 6 -29 10 -53 8 -55
-2 -2 -140 -7 -306 -12 -167 -5 -359 -12 -427 -16 l-122 -7 15 44 c9 25 15 72
15 109 -1 36 3 103 9 150 12 98 1 230 -28 335 l-18 66 49 123 50 124 57 24
c74 33 173 109 224 172 83 105 136 261 137 405 l0 54 78 72 c122 114 179 230
202 407 9 71 14 85 37 105 34 27 39 28 48 6z m1783 -133 c-3 -110 -5 -118 -42
-193 -121 -243 -427 -375 -819 -353 -143 8 -245 27 -360 65 -131 44 -204 87
-283 166 -90 90 -126 160 -132 265 -4 72 10 160 26 160 5 0 37 -11 73 -26 99
-39 270 -80 414 -99 178 -24 534 -16 676 14 151 33 260 67 345 109 104 51 107
48 102 -108z m2336 -181 c7 -15 -212 -165 -884 -604 -91 -60 -223 -147 -295
-194 -71 -47 -142 -91 -157 -98 -26 -11 -28 -9 -51 30 -50 85 -116 225 -152
322 -31 84 -85 270 -85 295 0 14 50 29 251 75 210 48 825 192 1144 268 l180
43 21 -60 c11 -34 24 -68 28 -77z m1101 -14 c220 -53 558 -132 751 -177 193
-45 359 -87 368 -94 16 -11 13 -23 -29 -152 -41 -126 -168 -402 -209 -455 -18
-24 -21 -23 -211 111 -588 415 -1105 791 -1105 806 0 26 13 56 24 56 6 0 191
-43 411 -95z m-7058 -75 c200 -186 505 -301 844 -317 140 -7 243 5 388 43 52
13 95 23 97 21 6 -6 -16 -134 -30 -175 -57 -160 -221 -281 -431 -319 -97 -17
-307 -19 -396 -3 -238 42 -442 145 -539 274 -62 82 -90 170 -90 287 0 64 6
112 17 145 17 49 51 114 60 114 3 0 39 -31 80 -70z m6821 -93 c250 -182 784
-564 938 -669 139 -96 142 -100 119 -135 -66 -102 -316 -374 -342 -373 -18 1
-58 49 -474 570 -240 300 -459 572 -487 605 -29 33 -52 64 -52 68 0 15 73 96
82 91 5 -3 102 -73 216 -157z m-742 55 c21 -12 28 0 -82 -132 -113 -135 -312
-382 -559 -695 -221 -280 -344 -431 -364 -449 -20 -18 -21 -18 -68 20 -108 86
-271 265 -348 382 -27 41 -27 43 -10 62 9 10 81 61 159 111 357 234 623 409
891 586 l289 192 37 -33 c20 -19 45 -38 55 -44z m460 -76 c133 -162 897 -1120
919 -1152 14 -20 25 -41 25 -45 0 -29 -307 -221 -427 -268 l-51 -20 -15 23
c-8 12 -79 206 -157 432 -79 225 -196 559 -261 743 -65 184 -116 338 -113 343
11 18 31 4 80 -56z m-451 -143 c-193 -608 -434 -1338 -450 -1360 l-16 -22 -72
26 c-121 43 -288 131 -399 211 l-47 33 25 40 c13 22 60 83 102 137 43 53 154
193 247 311 414 521 655 814 663 806 2 -2 -22 -84 -53 -182z m432 -118 c195
-550 412 -1180 418 -1216 l7 -36 -99 -32 c-154 -49 -195 -56 -461 -86 -29 -3
-44 -1 -47 8 -15 46 -23 1624 -8 1638 9 8 50 17 73 15 9 -1 48 -98 117 -291z
m-243 113 c9 -269 14 -1430 7 -1458 l-7 -25 -114 3 c-125 3 -305 31 -412 63
-66 19 -68 21 -62 47 3 15 66 212 139 437 73 226 184 566 246 758 l113 347 42
0 42 0 6 -172z m-2600 80 c4 -29 20 -107 36 -173 138 -579 487 -1090 1001
-1468 28 -21 42 -21 -351 7 -113 8 -254 18 -313 21 -95 6 -108 9 -102 24 16
41 27 220 16 273 -27 127 -115 249 -245 337 -76 53 -217 119 -331 156 -163 54
-165 55 -165 120 0 52 2 56 38 79 51 32 141 131 174 192 37 68 68 194 68 275
l0 66 75 62 c41 34 75 67 75 72 0 5 4 9 9 9 5 0 12 -24 15 -52z m-1449 -102
c221 -105 544 -150 811 -113 89 13 235 52 312 83 19 9 15 -74 -8 -148 -50
-164 -177 -266 -398 -320 -133 -33 -349 -31 -497 4 -60 15 -139 39 -175 56
-134 61 -235 163 -266 270 -21 70 -15 212 9 259 l17 33 63 -46 c34 -25 94 -60
132 -78z m-1996 -546 c171 -55 389 -80 556 -62 50 6 92 8 94 6 2 -2 -13 -47
-33 -99 -45 -113 -57 -175 -33 -175 31 0 62 -168 54 -289 -10 -136 -18 -155
-94 -210 -214 -157 -438 -221 -774 -221 -235 0 -391 26 -509 85 -81 41 -99 82
-81 182 19 99 55 159 160 263 118 117 197 169 321 211 82 28 112 33 223 37 70
2 127 8 127 12 0 19 -129 44 -232 44 -60 0 -108 4 -108 8 0 4 15 22 34 41 33
33 33 35 38 143 2 61 8 115 12 122 5 8 28 1 79 -28 40 -21 114 -53 166 -70z
m2061 -36 c136 -47 250 -65 420 -65 107 0 173 5 250 20 58 12 106 21 108 21 2
0 2 -23 0 -52 l-3 -51 -80 -22 c-109 -29 -221 -83 -205 -98 3 -3 48 3 100 14
116 23 203 24 307 4 148 -28 346 -108 457 -184 123 -85 211 -255 177 -343 -21
-55 -176 -110 -406 -144 -78 -12 -180 -17 -350 -17 -254 0 -358 10 -545 49
-63 14 -158 34 -210 45 -183 38 -286 76 -324 118 -28 31 -34 171 -12 265 18
75 70 183 116 237 23 27 31 32 41 22 7 -7 17 -13 21 -13 4 0 8 54 8 121 0 112
1 121 18 114 9 -4 60 -23 112 -41z m-280 -789 c58 -29 136 -51 370 -104 301
-67 501 -87 770 -77 291 11 476 43 603 105 32 15 60 24 63 19 12 -19 -33 -84
-78 -114 -125 -84 -505 -136 -840 -114 -169 11 -324 32 -418 55 -30 8 -111 26
-179 40 -244 52 -341 96 -354 162 -5 25 0 53 9 53 3 0 27 -11 54 -25z m-1170
-66 c-22 -53 -126 -135 -244 -194 -198 -98 -378 -131 -659 -122 -142 4 -188
10 -264 31 -115 32 -181 64 -221 110 -29 33 -48 73 -40 82 3 2 29 -9 59 -25
124 -68 370 -107 604 -98 286 12 495 78 695 220 78 56 94 55 70 -4z"/>
<path d="M6590 9141 c-75 -23 -123 -67 -164 -148 -70 -141 -75 -338 -10 -466
51 -103 120 -150 219 -151 105 -1 179 40 230 128 97 167 62 483 -65 590 -52
43 -149 65 -210 47z m127 -102 c15 -5 43 -25 61 -42 133 -127 117 -425 -29
-533 -44 -32 -59 -31 -27 4 50 53 62 90 66 202 4 100 2 108 -25 160 -16 30
-44 65 -62 77 -55 37 -128 26 -175 -26 -16 -18 -17 -21 -3 -21 24 0 57 -49 57
-84 0 -59 -68 -100 -100 -61 -26 32 -33 16 -28 -67 5 -82 5 -83 -11 -48 -23
50 -22 218 2 285 44 127 166 195 274 154z"/>
<path d="M7325 9111 c-69 -31 -128 -119 -156 -231 -19 -78 -18 -252 3 -321 38
-124 114 -183 233 -183 118 0 185 52 236 183 33 83 33 276 1 379 -49 157 -187
232 -317 173z m193 -108 c20 -16 50 -56 67 -89 28 -55 30 -66 30 -169 0 -136
-24 -210 -84 -267 -49 -47 -71 -50 -37 -5 84 111 68 330 -31 417 -44 39 -93
40 -146 5 -42 -29 -46 -41 -17 -50 34 -11 54 -62 41 -104 -15 -50 -43 -66 -81
-47 -29 14 -29 14 -36 -20 -3 -19 -3 -51 0 -71 6 -33 5 -36 -6 -18 -8 13 -13
57 -12 130 1 89 5 121 23 168 26 67 72 124 116 144 50 22 129 12 173 -24z"/>
<path d="M6333 8120 c-48 -21 -85 -72 -81 -109 4 -31 28 -40 35 -12 7 28 29
27 64 -4 17 -13 74 -38 127 -54 83 -26 108 -39 167 -88 146 -120 250 -164 397
-164 156 -1 240 35 375 163 46 43 88 78 94 78 6 0 38 16 70 35 69 40 69 40 69
20 0 -25 27 -17 34 9 8 33 -8 72 -38 92 -30 19 -65 12 -47 -10 9 -11 -3 -19
-58 -44 -131 -59 -267 -82 -480 -82 -217 0 -414 30 -600 92 -94 30 -94 31 -71
48 15 11 21 23 17 34 -8 21 -22 20 -74 -4z m752 -245 c105 1 205 4 224 8 l35
7 -25 -26 c-40 -43 -118 -82 -192 -95 -117 -21 -268 16 -357 87 l-45 36 85 -9
c47 -4 171 -8 275 -8z"/>
<path d="M10424 2986 c-91 -41 -109 -159 -34 -231 40 -39 120 -46 168 -15 82
51 80 181 -2 235 -35 23 -95 28 -132 11z"/>
</g>
</svg>
